<svg width="282" height="298" viewBox="0 0 282 298" fill="none" xmlns="http://www.w3.org/2000/svg">
<path d="M197.622 175.772C196.879 176.576 185.97 182.648 193.211 181.526C190.074 186.653 196.761 182.506 192.763 186.393C192.244 186.464 191.737 186.535 191.218 186.617C190.994 187.728 190.782 188.826 190.558 189.937C189.083 190.232 187.609 190.528 186.147 190.823C180.651 193.339 185.663 195.111 181.287 199.234C179.141 201.254 168.231 206.901 164.504 208.083C158.088 208.555 146.247 212.832 145.068 212.95C136.67 213.824 141.4 206.594 143.959 202.991C149.49 195.229 154.68 195.418 159.197 189.051C166.344 186.275 171.852 180.651 178.634 177.107C183.34 175.194 188.057 173.268 192.763 171.354H194.969C195.039 173.693 203.071 169.83 197.622 175.784M93.8223 130.656C85.7669 127.951 84.7054 140.911 80.1293 137.296C79.3155 135.453 78.5134 133.61 77.6996 131.767C77.2633 128.967 76.8151 126.167 76.3787 123.356C77.6997 119.516 79.0324 115.689 80.3533 111.849C87.0524 105.73 93.7515 99.6103 100.451 93.4909C102.22 92.6048 103.989 91.7188 105.746 90.8328C116.951 89.3561 109.556 102.091 117.01 106.982C111.879 116.882 102.739 124.206 93.8223 130.656ZM232.238 99.185C229.926 102.386 195.83 115.618 189.013 117.484C187.526 113.964 205.524 103.355 208.803 101.938C215.502 99.7048 222.201 97.4602 228.9 95.2275C232.344 91.9787 235.8 88.7182 239.244 85.4694C240.152 85.9774 241.072 86.4854 241.98 86.9934C241.98 88.3638 232.415 93.1365 232.238 99.185ZM75.6121 233.08C73.8783 244.457 67.0732 243.606 57.2251 250.045C50.8563 252.218 48.6391 250.328 53.0501 245.095C61.4475 237.593 69.8567 230.08 78.2541 222.578C86.1679 216.695 76.992 228.603 75.6121 233.08ZM274.52 80.1888C272.987 76.054 271.465 71.9311 269.932 67.7963C269.672 65.5872 273.081 57.3295 263.74 58.8416C262.596 59.0306 244.634 70.0881 250.672 61.3697L256.168 58.6171C257.253 55.5929 253.597 52.1551 253.42 51.2691C252.37 45.953 261.971 41.2748 249.976 38.6404C247.051 36.3013 248.82 27.7128 243.56 29.9219C238.819 31.9066 229.537 47.8195 211.704 45.3032C211.539 41.4874 214.983 37.3763 214.11 35.0372C214.099 29.9338 214.087 25.5864 214.075 20.4829C216.186 16.0528 218.309 11.6227 220.42 7.19261L216.245 2.27815C205.796 5.3615 203 2.69163 197.74 12.0125C199.462 -0.568921 193.978 9.23636 191.324 8.33852C189.826 7.83054 191.855 2.76251 187.196 4.20377C180.332 6.33021 180.497 12.8159 176.652 17.057C171.003 21.3453 165.342 25.6336 159.692 29.9101C145.351 34.9782 168.42 10.0633 166.792 3.05785C165.177 -3.95942 152.427 3.4477 148.229 2.37266C141.954 -1.36043 139.76 4.45185 134.017 4.6645C133.639 5.04253 133.25 5.43238 132.873 5.81042C134.665 8.6693 125.513 17.8957 124.393 17.9784C123.886 17.7303 123.378 17.4704 122.871 17.2223L115.158 19.3133C112.622 23.4481 118 23.1409 117.293 27.3938C117.092 28.6343 108.152 39.7509 106.525 40.0226C99.8845 41.1094 107.209 32.6509 108.589 25.102C109.603 19.526 107.256 17.3287 105.156 21.2035C99.2947 18.3801 102.078 22.9756 99.6603 25.3383C98.3983 25.7163 95.4262 21.9478 88.8923 28.776C92.23 37.6362 81.8159 35.0372 83.3963 50.3595C72.9821 58.9361 75.7772 65.3391 71.4841 76.9873C70.1632 70.8678 69.7858 76.8219 66.6722 74.9199C65.5399 74.2229 62.6504 66.6622 58.8763 68.0326C57.4138 68.5642 49.5472 76.8691 49.0282 78.3577C47.6365 82.2798 53.1562 81.5709 47.8842 86.8516C44.5229 88.9899 41.1615 91.14 37.8002 93.2782C32.6108 96.905 33.401 100.662 21.7602 100.626C18.7763 103.178 21.6894 106.013 16.9481 107.289C16.2051 109.215 22.7509 117.295 24.5082 117.614C29.6858 118.571 31.16 110.774 35.5121 113.019C41.1968 115.96 31.1129 116.48 31.1601 126.557C28.8367 131.897 13.6931 135.346 9.8482 138.725C6.02691 142.08 4.89467 150.491 5.72026 151.578C7.48938 153.894 11.6998 149.983 13.0562 156.623C14.896 156.162 16.7242 155.701 18.5523 155.24C24.4965 159.765 21.772 161.1 18.3281 166.487C22.2555 173.067 11.5936 184.373 19.4721 177.273C21.2884 175.631 23.3643 171.921 25.3339 171.248C26.6902 170.775 27.9167 170.019 28.7895 168.873C33.1887 163.061 41.6923 166.617 41.2441 170.161C40.5483 175.678 21.3474 171.815 22.456 187.61C21.6187 189.689 1.85168 200.876 0 205.968C2.05218 218.857 0.495342 213.292 10.308 212.654C12.6079 211.768 14.7781 210.93 17.078 210.032C18.2102 209.087 19.6963 208.532 21.1705 208.673C26.4189 209.181 31.5376 206.5 32.0919 210.103C32.4693 212.572 26.0297 213.552 24.0718 213.541C21.6304 213.08 19.1773 212.619 16.7359 212.158C9.9661 213.328 16.3113 216.411 17.019 222.661C17.2784 224.917 18.8116 226.89 20.9582 227.622C24.4256 228.792 26.7491 226.878 31.8677 226.394C35.5357 226.24 39.2038 226.087 42.8717 225.933C48.7924 224.988 66.684 216.966 56.3759 225.685L52.3895 227.953C51.1865 228.437 50.1958 229.335 49.6179 230.481C45.9618 237.64 37.5526 239.141 36.2316 249.111C35.123 257.534 36.9628 259.992 40.7369 265.296C41.8456 266.843 43.827 267.552 45.6433 266.985C47.9786 266.265 50.1604 265.154 52.2008 263.807C53.2976 263.087 54.5479 262.685 55.8453 262.567C63.7473 261.894 69.4437 256.684 70.5996 261.492C72.2861 268.462 63.7355 273.046 59.9024 275.408C58.8645 276.046 58.086 277.015 57.6496 278.161C56.6236 280.866 55.5857 283.583 54.5596 286.289C53.9699 287.068 52.932 287.765 51.7998 288.51C48.0139 291.026 47.9904 295.184 51.9886 297.358C54.4417 298.693 57.3666 297.866 58.8054 295.621C62.1904 292.81 65.4103 290.128 68.807 287.316C78.9617 282.615 89.1046 277.913 99.2593 273.199C105.687 269.395 106.961 263.311 116.219 263.559C115.417 273.4 121.22 269.75 122.175 269.986C124.617 271.368 127.058 272.738 129.511 274.121C129.358 272.431 129.205 270.754 129.051 269.064C139.289 280.937 135.526 271.262 144.631 272.738C153.607 261.704 160.931 281.303 167.547 268.604C176.77 269.159 171.086 264.729 170.991 264.244C170.555 262.012 174.069 258.964 163.891 257.133C159.197 260.133 155.741 258.657 157.239 252.773C158.324 248.509 163.809 252.384 169.847 247.032C181.783 249.489 179.955 245.744 182.219 245.189C183.811 244.811 189.732 246.347 199.639 243.358C202.08 242.59 204.522 241.822 206.975 241.066C205.819 235.526 210.442 234.084 215.231 235.1C216.304 235.715 217.366 236.329 218.439 236.931C223.628 235.1 228.829 233.257 234.019 231.426C236.59 230.387 237.522 227.658 245.471 226.831C251.474 216.01 254.635 228.615 264.035 215.584C266.854 211.674 267.821 208.13 264.955 203.653C262.513 201.963 260.072 200.286 257.619 198.596C257.454 194.202 267.149 195.915 265.875 191.709C265.403 190.15 261.546 190.917 260.143 190.102C259.376 188.874 258.61 187.657 257.855 186.428C254.258 185.259 246.462 191.154 239.975 190.102C235.729 187.397 231.023 187.811 230.351 187.35C226.353 184.585 247.771 172.937 230.351 174.497C227.685 173.103 242.593 170.09 242.959 168.294C243.289 166.688 239.48 163.652 252.359 159.34C255.402 153.149 261.829 159.552 265.875 154.059C266.795 151.921 267.703 149.771 268.623 147.633C268.823 145.27 265.686 145.494 265.415 144.88C264.283 142.352 273.576 137.024 261.287 138.453C263.882 136.15 266.464 133.846 269.059 131.531L275.758 121.914C279.344 112.298 268.257 119.67 276.867 111.365C273.423 109.002 274.166 107.289 273.435 107.006C263.74 107.455 265.839 112.393 263.351 113.893C257.985 114.271 251.321 119.327 248.231 118.028C246.639 117.354 241.65 117.012 239.975 115.736C236.826 113.314 243.69 113.361 243.867 111.837C239.421 107.301 251.663 101.548 240.918 101.961L239.786 98.488C242.452 96.7396 245.105 94.9912 247.771 93.231H257.395C261.983 91.2935 280.688 89.5806 281.915 84.2763C282.799 80.4841 276.549 83.1067 274.579 80.1415" fill="url(#paint0_linear_57_102)"/>
<defs>
<linearGradient id="paint0_linear_57_102" x1="141" y1="0" x2="141" y2="298" gradientUnits="userSpaceOnUse">
<stop stop-color="white"/>
<stop offset="1" stop-color="#FF5076"/>
</linearGradient>
</defs>
</svg>
