<svg width="321" height="237" viewBox="0 0 321 237" fill="none" xmlns="http://www.w3.org/2000/svg">
<path d="M220.429 190.593C212.319 176.353 204.839 186.133 201.289 163.433C200.189 162.383 198.909 161.493 197.709 160.533C194.839 158.243 191.039 157.303 187.489 158.213C176.899 160.933 175.479 146.973 163.019 152.073C157.249 157.323 148.139 159.473 145.379 150.173C143.209 142.853 156.879 141.073 155.149 132.923C154.349 129.133 146.649 130.193 144.369 132.503C142.639 134.253 142.709 142.373 134.929 142.293C122.349 142.173 129.249 125.743 131.669 123.023C134.119 120.263 147.269 115.783 142.029 110.033C135.559 102.933 120.369 120.573 113.259 118.083C106.979 115.873 108.999 102.143 95.7794 88.2634C80.8895 72.6234 67.0695 88.5234 57.7094 89.0234C48.1694 89.5434 41.8694 81.0934 37.3794 82.9534C32.3094 85.0534 26.7694 95.0534 30.1194 100.173C36.7394 110.283 56.1095 96.8134 61.5294 115.473C63.0994 120.903 58.2295 125.863 69.7495 129.673C75.8094 131.683 85.0195 131.543 93.4995 132.293C101.979 133.043 110.199 137.553 115.219 144.683C123.809 156.883 129.919 150.353 136.919 156.363C149.259 166.953 128.779 182.123 140.949 189.513C149.919 194.963 153.739 177.603 180.909 176.533C187.469 176.273 190.019 177.253 191.259 178.573C193.379 180.843 195.989 182.573 198.989 183.373C212.949 187.073 199.179 204.303 218.199 208.483C222.209 209.363 225.649 205.553 224.339 201.663C223.059 197.883 222.299 193.863 220.429 190.583M254.949 145.493C255.069 145.323 255.179 145.153 255.299 144.983C257.979 141.053 258.859 136.213 257.939 131.533C256.689 125.153 257.799 118.253 251.289 115.313C247.609 113.653 238.679 117.383 231.829 114.383C223.619 110.773 214.189 92.5834 207.259 101.743C206.069 103.323 205.369 105.213 205.059 107.163C203.799 115.263 199.589 123.863 202.939 131.173C205.349 136.423 204.549 141.243 206.119 144.313C206.169 144.423 206.219 144.523 206.279 144.613C209.019 149.303 214.459 147.513 216.959 148.353C226.859 151.683 213.969 160.833 228.279 161.373C232.459 160.863 236.639 160.353 240.809 159.853C243.499 159.523 246.209 159.443 248.919 159.593L257.669 160.093C260.079 158.083 252.539 151.593 254.929 145.493M259.149 91.5134C256.679 87.9634 245.649 91.5134 249.049 97.4534C251.629 101.953 263.149 97.2834 259.149 91.5134ZM264.549 64.8234C260.269 66.1134 257.599 64.0634 255.569 67.5734C253.139 71.7634 254.939 77.1834 259.259 79.3734C263.579 81.5634 261.909 75.0234 268.699 72.7634C272.419 71.5334 275.179 68.2534 275.209 64.3334C275.259 58.0634 267.909 63.8034 264.549 64.8134M242.399 59.7234C240.449 57.5634 237.319 57.3834 234.269 58.1534C230.079 59.2134 226.629 62.1734 224.649 66.0234C224.099 67.0934 223.549 68.1634 222.999 69.2234C219.899 73.7834 214.359 77.4034 217.749 84.2534C221.149 91.1134 237.719 96.4834 238.709 86.2534C238.279 83.6834 237.839 81.1134 237.409 78.5434C237.679 71.1834 247.509 65.3634 242.419 59.7234M159.469 107.743C157.919 113.113 170.219 110.093 171.799 114.243C172.089 115.003 167.929 126.103 169.739 130.183C170.859 132.713 173.319 133.493 175.379 131.473C177.469 129.413 180.279 126.843 185.399 112.593C187.599 106.453 185.639 99.1434 178.309 96.4834C170.049 93.4834 159.789 106.613 159.469 107.733M247.829 30.1234C248.339 24.0934 231.309 32.6034 231.269 45.4834C232.029 46.6734 234.629 44.2534 238.669 43.0534C242.709 41.8534 245.679 38.5234 246.709 34.4834C247.079 33.0334 247.449 31.5834 247.819 30.1234M215.219 52.1734C213.149 49.6334 210.709 55.6334 210.859 56.0834C211.799 58.9134 216.799 54.1134 215.219 52.1734ZM191.319 71.8134C193.149 75.0734 198.109 69.2134 202.379 65.8734C204.669 64.0834 204.629 60.4334 202.099 58.9934C196.689 55.9134 189.619 68.8034 191.319 71.8134ZM172.829 72.6934C169.799 72.9434 165.349 79.6434 166.709 82.5834C171.299 92.5734 180.439 72.0634 172.829 72.6934ZM235.629 229.653C232.729 231.293 229.839 232.923 226.939 234.563C211.719 240.493 205.979 232.263 194.709 224.553C192.119 223.313 189.529 222.083 186.939 220.843C179.659 213.473 195.339 210.283 193.449 203.083C190.999 193.773 177.529 188.303 167.739 194.083C155.059 201.573 140.489 223.813 134.349 213.093C133.039 210.803 132.619 208.103 131.759 205.603C124.019 191.443 113.539 215.453 103.839 210.863C100.719 209.393 96.9495 204.803 97.8395 201.173C99.0195 196.333 107.509 197.513 118.309 178.033C119.579 175.743 124.559 170.833 120.469 165.483C119.169 163.773 106.099 151.993 100.849 149.513C96.3195 148.013 91.7895 146.523 87.2595 145.023C80.2094 142.693 72.5294 143.233 65.8595 146.493C60.8395 148.953 56.2194 150.893 52.0394 146.933C44.7094 139.983 54.9994 125.303 45.8794 116.783C42.6994 113.813 26.2394 116.923 24.4794 117.633C20.3294 120.183 16.1794 122.743 12.0294 125.293C8.38945 126.323 2.53945 122.603 0.849449 119.393C-2.13055 113.713 3.40945 107.063 6.98945 101.253C8.56945 98.7034 9.42945 95.7634 9.50945 92.7634C10.1294 67.7134 17.0394 69.1334 18.2094 66.6234C20.5595 61.5934 10.2894 57.6634 8.19945 50.4734C6.68945 45.2834 13.8094 33.6734 21.6594 36.2934C32.2794 39.8434 28.8195 53.0934 34.4394 58.7134C45.3294 62.1934 55.5394 79.4634 68.5994 72.3534C89.7394 60.8534 40.5095 40.5534 67.1495 27.9234C82.0895 20.8434 85.9895 54.2434 89.7595 62.2934C96.4395 76.5534 102.839 66.9934 108.319 79.7634C120.779 83.3234 119.649 88.0534 123.909 92.1934C134.479 102.473 155.819 74.2234 152.489 61.1834C149.029 47.6534 137.119 47.7634 134.029 45.8034C122.639 38.6134 131.539 29.0434 141.759 28.2334C148.699 27.6834 160.119 37.5934 162.509 42.2934C165.549 48.2534 162.139 62.5134 175.769 58.9434C183.079 57.0334 186.949 52.9934 189.589 49.2734C192.949 44.5334 197.999 41.2534 203.659 39.9534L203.749 39.9334C210.009 36.5434 212.769 30.0934 214.279 24.2934C216.219 16.8734 221.009 10.5134 227.609 6.60341C235.299 2.04341 243.649 -1.97659 251.479 1.05341C262.999 5.51341 261.869 10.4534 260.329 14.6434C259.529 16.8234 259.359 19.2334 260.059 21.4534C262.539 29.2634 253.309 37.3334 258.409 45.0834C263.859 53.3734 269.379 44.0834 275.979 47.3934C283.549 51.1834 283.029 61.8434 291.149 65.1734C300.139 68.8634 318.219 72.9234 317.429 82.3734C317.049 86.9134 312.349 89.7734 307.939 88.6334C302.369 87.1834 297.179 83.7234 291.229 83.5334C271.999 82.9334 278.009 97.4034 275.939 104.093C274.089 110.083 265.699 117.423 269.929 124.013C275.769 133.103 288.409 127.783 298.419 139.273C306.349 143.443 315.239 134.683 320.429 150.613C322.829 157.973 316.739 167.503 311.159 170.023C300.679 174.753 299.319 158.233 288.089 154.763C280.579 152.443 272.769 154.663 272.949 163.673C273.009 166.893 278.929 177.943 267.229 179.053C261.899 179.553 237.979 167.813 236.739 179.323C235.689 189.083 254.709 193.883 256.019 194.823C263.839 200.443 256.959 202.263 255.849 203.973C252.779 208.713 256.989 214.603 255.079 219.703C249.899 233.493 238.459 228.853 235.609 229.613" fill="url(#paint0_linear_57_101)"/>
<defs>
<linearGradient id="paint0_linear_57_101" x1="160.484" y1="0" x2="160.484" y2="236.589" gradientUnits="userSpaceOnUse">
<stop stop-color="white"/>
<stop offset="1" stop-color="#FF5076"/>
</linearGradient>
</defs>
</svg>
