<svg width="295" height="301" viewBox="0 0 295 301" fill="none" xmlns="http://www.w3.org/2000/svg">
<path d="M108.279 84.3189C108.432 84.5065 108.585 84.6941 108.737 84.8817C111.252 82.8884 113.755 80.895 116.269 78.9017C116.152 78.7492 116.022 78.5968 115.905 78.4561C113.367 80.4143 110.829 82.3607 108.279 84.3189ZM66.3093 160.758C66.0978 160.512 65.898 160.254 65.6865 160.007C63.1368 160.148 62.3026 161.872 61.8208 164.44C63.5128 163.056 64.9111 161.907 66.2975 160.77M104.331 85.8315C108.291 82.3255 112.063 78.9955 115.822 75.6537C109.313 79.1479 106.058 82.1497 104.331 85.8315ZM107.492 89.8416C107.762 90.1113 108.044 90.3693 108.326 90.639C111.146 87.4144 113.954 84.1899 116.774 80.9654C116.504 80.7309 116.246 80.4963 115.975 80.2736C113.144 83.4629 110.324 86.6523 107.504 89.8416M46.1469 196.978C45.8884 196.873 45.6297 196.767 45.3712 196.661C40.0603 200.32 38.4037 201.457 33.1046 205.116C33.4101 209.325 36.7469 210.521 39.9546 211.858C42.0226 206.898 44.0907 201.938 46.1469 196.978ZM44.1257 226.14C44.3724 226.257 44.6311 226.362 44.8778 226.48C47.0163 222.575 49.1664 218.67 51.3049 214.766C50.8701 214.543 50.4353 214.32 50.0123 214.097C48.0501 218.108 46.0879 222.129 44.1257 226.14ZM64.2413 180.199C66.5795 175.626 69.3055 170.267 71.9139 165.143C66.1096 168.579 65.6866 175.098 64.2413 180.199ZM39.6022 235.766C39.2145 235.614 38.8267 235.461 38.439 235.321C33.1399 247.621 35.5015 242.133 30.1907 254.433C30.3434 254.504 30.5078 254.586 30.6605 254.656C33.6332 248.359 36.6178 242.063 39.5904 235.766M124.118 82.1848C117.456 87.5082 109.924 91.7412 104.496 98.4716C110.242 92.0695 119.253 89.6071 124.118 82.1848ZM143.211 60.5277C142.976 60.3167 142.753 60.0939 142.518 59.8828C137.383 66.754 132.237 73.6134 127.208 80.3322C127.819 80.039 128.653 79.6404 130.192 78.9017C129.652 80.3205 129.452 81.1061 129.076 81.7862C126.961 85.5383 124.012 88.3407 120.182 90.4279C117.679 91.7881 115.399 93.5352 113.461 95.6223C103.826 105.988 94.2854 116.412 81.6545 123.377C80.1975 124.186 78.9755 126.027 78.3763 127.668C77.0838 131.186 76.2494 134.868 75.2507 138.503C75.0392 139.288 74.91 140.086 74.7338 140.883C78.7874 131.174 88.5869 119.566 96.9644 115.462C94.591 118.065 92.2175 120.668 89.844 123.271C90.079 123.494 90.3256 123.705 90.5606 123.928C93.9093 120.316 97.2462 116.705 100.595 113.082C100.889 113.316 101.194 113.539 101.488 113.773C97.9395 117.186 96.0596 121.501 94.2384 125.863C93.5922 127.41 92.5112 128.782 91.63 130.224C90.8075 131.573 89.9732 132.921 89.1389 134.27C99.4199 122.146 106.811 107.711 120.664 98.2957C119.395 97.7915 118.901 97.6039 117.714 97.1349C127.42 89.4312 132.824 79.0658 138.429 68.806C138.229 68.7004 137.877 68.5128 137.524 68.3252C139.428 65.7339 141.319 63.1425 143.211 60.5394M73.4062 205.678C73.7939 205.35 74.3344 205.092 74.5459 204.67C76.5903 200.73 79.3985 197.471 82.7707 194.539C88.575 189.497 93.1103 183.412 96.7762 176.634C97.5282 175.239 98.6916 172.648 101.312 174.911C101.547 175.122 102.475 174.571 103.051 174.336C108.855 171.979 112.779 167.324 116.857 162.915C121.451 157.944 125.822 152.773 130.286 147.684C130.392 146.464 130.756 145.327 131.414 144.389C132.202 143.263 133.048 142.536 131.52 141.129C130.31 140.015 130.228 138.62 132.202 137.412C133.823 136.427 134.928 134.61 136.314 133.121C135.962 132.945 135.503 132.734 134.975 132.476C138.641 125.229 146.372 121.888 150.872 115.509C147.946 117.338 144.903 119.073 142.506 121.454C138.041 125.898 133.929 130.693 129.723 135.395C120.652 145.538 111.569 155.669 102.604 165.894C100.536 168.25 98.7504 170.83 97.2346 173.574C94.6732 178.182 91.7121 182.626 87.1062 185.1C78.7757 189.591 76.9076 198.069 73.3944 205.667M62.5259 227.511C57.9435 232.436 53.0556 237.173 53.0673 244.736C54.0543 242.614 54.865 240.503 55.9577 238.557C58.0492 234.805 60.2934 231.135 62.4671 227.418C64.6173 223.748 66.7675 220.077 68.9177 216.419C68.6357 216.267 68.342 216.102 68.06 215.95C65.2048 219.292 63.7832 223.361 62.5377 227.511M113.625 221.508C112.756 221.86 111.734 222.012 111.041 222.575C104.907 227.582 98.8677 232.706 92.6991 237.666C91.1012 238.944 89.2564 240.198 87.3294 240.703C83.5108 241.711 80.7262 244.068 77.73 246.401C74.8748 248.629 71.2794 249.86 68.3655 252.03C62.1029 256.685 55.8519 261.398 50.0358 266.593C46.8751 269.43 44.0435 271.963 39.4728 271.4C38.7914 271.318 37.64 271.74 37.3697 272.28C35.4428 275.985 32.0235 277.064 28.3106 277.638C26.9946 277.837 25.6553 277.873 24.3276 277.767C21.2021 277.521 18.1472 277.38 15.339 279.233C14.587 279.725 13.4825 279.678 12.0608 279.983C17.7829 273.065 23.1174 266.628 28.4517 260.191C24.4098 261.504 22.7412 265.092 20.2385 267.847C17.3011 271.072 14.446 274.378 11.5203 277.615C11.0386 278.154 10.4394 278.6 9.76965 278.881C3.43655 281.519 -1.86261 280.605 0.628331 279.491C4.12975 277.92 6.77336 275.528 8.33607 271.986C12.9185 261.562 17.5949 251.185 22.0716 240.726C24.022 236.165 24.7152 231.346 24.069 226.339C23.129 219.069 24.2922 212.468 29.2506 206.499C31.4713 203.837 32.282 199.945 33.4923 196.532C35.666 190.423 37.6046 184.221 39.7666 178.112C41.529 173.152 43.9732 168.379 45.2657 163.302C48.2148 151.694 53.5491 141.317 60.458 131.678C64.7701 125.663 68.0248 118.956 69.8577 111.78C72.4309 101.708 76.5903 92.0812 80.127 82.2786C80.221 82.0089 80.3736 81.751 80.5616 81.5282C87.8346 72.7927 90.3493 61.9348 93.9564 51.5694C95.6484 46.7267 97.1758 41.8255 101.006 38.1084C101.124 38.0029 101.206 37.8622 101.253 37.7098C104.848 26.805 114.659 20.2621 120.193 10.7175C121.603 8.27863 122.919 5.79281 124.435 3.42425C125.904 1.12604 127.126 1.03223 128.465 2.9435C129.158 2.29859 129.816 1.61851 130.533 1.02051C132.014 -0.222404 133.294 -0.703151 134.082 1.77094C134.317 2.49793 135.022 3.21319 135.691 3.63531C138.558 5.45277 141.355 7.49301 144.445 8.818C146.607 9.74432 147.641 10.9638 147.829 13.1096C148.158 16.6624 149.439 19.4531 153.222 20.567C153.939 20.7781 154.667 21.5754 155.008 22.2789C157.052 26.5236 158.779 30.7331 158.685 35.7164C158.615 39.7618 159.602 43.9009 160.613 47.8876C161.788 52.5309 163.315 57.1156 165.03 61.5947C166.205 64.6434 167.803 67.5162 169.636 70.2248C173.737 76.2986 175.981 82.6187 173.443 89.994C173.208 90.6859 172.997 91.6239 173.279 92.1985C175.535 96.7714 176.909 101.86 181.821 104.792C183.501 105.788 184.841 107.852 185.628 109.728C186.897 112.753 187.707 115.99 188.471 119.191C190.14 126.308 193.935 132.194 198.905 137.354C202.3 140.883 204.921 144.811 206.636 149.384C208.175 153.488 210.69 156.572 214.65 158.847C216.682 160.007 218.398 162.646 219.138 164.967C221.547 172.495 223.062 180.316 225.659 187.773C227.715 193.671 230.782 199.229 233.555 204.869C234.001 205.784 235.106 206.616 236.105 206.992C246.456 210.967 252.695 218.881 256.772 228.684C260.72 238.146 264.48 247.691 267.923 257.329C269.58 261.961 271.718 265.995 275.255 269.501C277.146 271.377 278.11 274.203 279.449 276.618C279.943 277.509 280.107 278.752 280.824 279.35C284.361 282.258 287.921 285.166 291.704 287.722L293.901 289.2C296.052 290.654 294.806 294.007 292.233 293.726C287.674 293.221 283.197 292.717 278.709 292.248C277.217 292.096 275.631 291.838 274.232 292.178C273.151 292.436 271.847 293.374 271.401 294.347C270.426 296.469 269.027 297.548 266.748 297.912C261.825 298.709 256.925 299.671 252.014 300.597C249.37 301.101 246.891 301.605 244.823 298.955C244.176 298.134 242.473 297.853 241.239 297.806C235.693 297.583 230.147 297.501 224.602 297.454C223.497 297.454 222.369 297.759 221.264 297.959C220.16 298.158 219.009 298.721 217.951 298.58C213.087 297.923 208.222 297.173 203.393 296.27C198.376 295.332 193.406 294.195 188.424 293.128C187.778 292.987 171.375 289.34 170.012 289.411C167.192 289.551 164.796 289.258 163.609 286.127C163.315 285.342 161.87 284.767 160.859 284.521C156.853 283.524 152.834 282.176 148.769 281.93C144.386 281.66 119.03 284.873 118.643 285.365C116.598 287.922 113.825 288.004 110.935 287.968C106.822 287.91 101.547 288.32 103.227 288.32C102.263 289.715 86.2367 291.873 82.3593 291.322C82.6413 290.56 82.8998 289.844 83.2288 288.942C77.0249 288.66 46.6755 285.787 39.2849 287.687C37.7927 288.074 36.277 288.32 34.8553 288.602C37.2992 284.978 39.4023 281.32 42.046 278.119C43.9142 275.856 46.2995 274.062 48.9785 272.854C55.1236 270.087 61.4919 267.824 67.731 265.268C68.6827 264.881 69.5638 264.294 70.2806 263.556C72.9478 260.847 75.4976 258.033 78.3645 254.973C77.3423 254.527 76.7429 254.257 76.1672 253.999C78.1176 248.77 81.4545 245.158 86.4129 242.438C92.0645 239.331 97.1641 235.192 102.487 231.486C104.872 229.821 107.351 228.25 109.537 226.351C111.111 224.979 112.286 223.161 113.649 221.531C114.048 220.957 114.354 220.288 114.859 219.831C117.397 217.521 120.052 215.317 122.555 212.96C124.694 210.931 126.339 208.586 125.916 205.385C130.404 200.976 134.998 196.673 139.369 192.159C143.047 188.36 146.29 184.197 147.888 180.152C141.366 187.351 134.246 195.184 127.173 203.075C126.597 203.709 126.374 204.658 125.986 205.467C124.459 206.699 123.049 208.106 121.404 209.137C116.762 212.034 115.964 217.24 113.661 221.555" fill="url(#paint0_linear_200_127)"/>
<defs>
<linearGradient id="paint0_linear_200_127" x1="147.5" y1="0" x2="147.5" y2="301" gradientUnits="userSpaceOnUse">
<stop stop-color="white"/>
<stop offset="1" stop-color="#FF5076"/>
</linearGradient>
</defs>
</svg>
