<svg width="24" height="22" viewBox="0 0 24 22" fill="none" xmlns="http://www.w3.org/2000/svg">
<g clip-path="url(#clip0_384_900)">
<path d="M16.9818 2.08628C16.9818 1.68808 16.9794 1.3099 16.9818 0.931726C16.9852 0.376693 17.3519 -0.00927242 17.8612 -0.000374092C18.3613 0.00852424 18.7058 0.386703 18.7082 0.932838C18.7105 1.31102 18.7082 1.6892 18.7082 2.10519C18.83 2.10519 18.9321 2.10519 19.0342 2.10519C19.8544 2.10519 20.6747 2.09852 21.4938 2.10853C22.8338 2.12521 23.9592 3.19746 23.9801 4.48105C23.994 5.31193 23.9824 6.14281 23.9824 6.9926H0.0288563C0.0207349 6.94143 0.00333182 6.88916 0.00333182 6.83688C0.00333182 6.05049 -0.00711003 5.2641 0.00681243 4.47771C0.0300165 3.1919 1.15309 2.1241 2.49545 2.10853C3.40969 2.09852 4.32509 2.10631 5.27994 2.10631C5.27994 1.6714 5.27414 1.25874 5.2811 0.846079C5.28806 0.460114 5.51314 0.165357 5.87629 0.0463421C6.21855 -0.0659993 6.59562 0.0207594 6.79981 0.316629C6.91467 0.483472 6.98312 0.703706 6.99821 0.905031C7.02837 1.28988 7.00749 1.67919 7.00749 2.08406H16.9806L16.9818 2.08628Z" fill="white"/>
<path d="M23.9883 8.96614V8.67139H0.0138473C0.00920644 8.76371 0.00340542 8.82711 0.00340542 8.89162C0.00340542 12.4165 -0.0012354 15.9424 0.00456562 19.4673C0.00688603 20.9355 1.12648 21.9877 2.66492 21.9877C8.85925 21.9877 15.0536 21.971 21.2479 22C22.8165 22.0066 24.0162 20.8376 23.9999 19.3761C23.9616 15.9068 23.9872 12.4365 23.9872 8.96726L23.9883 8.96614Z" fill="white"/>
</g>
<defs>
<clipPath id="clip0_384_900">
<rect width="24" height="22" fill="white"/>
</clipPath>
</defs>
</svg>
