<svg width="23" height="36" viewBox="0 0 23 36" fill="none" xmlns="http://www.w3.org/2000/svg">
<g clip-path="url(#clip0_384_892)">
<mask id="mask0_384_892" style="mask-type:luminance" maskUnits="userSpaceOnUse" x="0" y="0" width="23" height="26">
<path d="M11.3831 15.3512C8.58994 15.3512 6.33435 13.1851 6.34604 10.501C6.34604 7.82865 8.625 5.66253 11.4299 5.6743C14.2231 5.6743 16.467 7.86396 16.4553 10.5481C16.4553 13.2086 14.188 15.3512 11.4065 15.3512M9.44309 0.141269C3.98526 1.01243 0 5.50948 0 11.3486C0.046748 13.6678 1.02846 16.1871 3.12043 18.2472C5.59807 20.6841 8.12246 23.0621 10.6235 25.4519C11.0325 25.8404 11.5117 25.8286 11.9441 25.4284C14.3984 23.0857 16.876 20.7665 19.2835 18.3767C21.9715 15.7279 23 12.5258 22.3572 8.87639C21.4456 3.68476 16.654 0 11.2896 0C10.6819 0 10.0625 0.0470896 9.44309 0.141269Z" fill="white"/>
</mask>
<g mask="url(#mask0_384_892)">
<path d="M23 0H0V25.8404H23V0Z" fill="white"/>
</g>
<path d="M11.2779 35.9999C14.8074 35.9999 17.659 34.7992 17.659 33.3276C17.659 31.8561 14.7957 30.6553 11.2779 30.6553C7.76016 30.6553 4.88516 31.8561 4.88516 33.3276C4.88516 34.7992 7.74848 35.9999 11.2779 35.9999Z" fill="white"/>
</g>
<defs>
<clipPath id="clip0_384_892">
<rect width="23" height="36" fill="white"/>
</clipPath>
</defs>
</svg>
