<svg width="289" height="275" viewBox="0 0 289 275" fill="none" xmlns="http://www.w3.org/2000/svg">
<path d="M134.308 0C137.401 0.326082 140.47 0.275914 143.513 0.363706C144.44 0.388789 145.342 0.852829 146.243 1.1162C145.667 1.90632 145.266 2.87203 144.49 3.4364C142.16 5.1546 139.706 6.7223 137.276 8.32763C136.775 8.66625 136.249 9.0425 135.66 9.20555C129.824 10.861 123.988 12.4914 118.14 14.1093C115.973 14.7113 113.857 15.0123 112.592 12.3786C110.813 13.2816 109.185 14.1093 107.469 14.9747C107.494 14.4103 107.52 13.9086 107.557 13.1185C106.067 13.7205 104.89 14.1971 103.362 14.7991C107.144 16.9312 102.861 18.7873 103.537 20.794C108.647 19.3643 113.581 17.7088 118.678 16.6302C127.27 14.7991 136.111 13.7958 144.565 11.601C158.717 7.91376 173.595 7.01076 187.409 2.19478C188.06 1.96903 188.811 1.8687 189.513 1.85616C190.039 1.85616 190.702 1.91887 191.078 2.20732C193.007 3.62453 194.86 5.11698 197.102 6.8728C196.626 7.04839 196.05 7.24905 195.436 7.46226C198.104 9.21809 202.3 8.01409 202.938 11.902C203.251 11.9396 203.577 11.9271 203.853 12.0274C204.617 12.3033 205.355 12.6169 206.107 12.9179C205.681 13.6453 205.305 14.3978 204.792 15.075C204.541 15.4011 203.99 15.5265 203.602 15.7648C200.884 17.4579 198.079 19.0382 195.537 20.9194C194.935 21.3584 194.71 23.1644 195.173 23.6409C196.012 24.4687 197.49 24.8199 198.755 25.2463C199.882 25.6351 201.11 25.7856 202.237 26.1743C203.339 26.5506 204.416 27.5665 205.43 27.4912C208.636 27.2404 211.404 28.1685 214.059 29.523C216.689 30.8649 219.269 32.2821 221.874 33.6742C223.777 34.6901 225.731 34.9911 227.785 34.0505C230.891 32.6082 233.959 31.0907 237.103 29.7236C238.18 29.2596 239.445 29.1342 240.622 28.8583C240.334 29.8741 240.058 30.89 239.77 31.8933C239.733 32.0313 239.67 32.1567 239.345 32.9594C241.486 32.5957 243.252 32.257 245.043 32.0313C245.819 31.931 247.047 31.8181 247.348 32.1818C247.823 32.7587 247.999 33.8498 247.723 34.5271C247.197 35.8439 246.258 37.0354 245.331 38.5278C246.809 38.7661 247.748 40.8355 249.652 39.0295C249.865 38.8288 250.717 39.0295 251.18 39.2176C253.472 40.1833 255.763 41.1867 258.005 42.2652C258.518 42.5161 259.207 43.2811 259.095 43.5947C258.243 45.8772 259.959 46.567 261.65 47.5202C264.868 49.3387 267.987 51.2952 271.093 53.2642C271.656 53.6279 271.957 54.3303 272.821 55.4339C268.112 55.6346 263.366 53.189 260.31 57.7541C260.761 59.811 260.56 60.112 257.767 60.6136C253.797 61.3285 250.178 60.7014 247.147 58.1805C243.928 61.3787 243.979 61.3536 246.646 64.8151C247.347 65.7306 247.661 66.897 248.149 67.9379C248.763 69.2548 249.314 70.5968 250.028 71.8635C251.13 73.7823 252.432 75.6009 253.509 77.5323C255.25 80.6551 256.114 84.1041 258.506 87.0137C259.984 88.8072 261.249 90.3122 263.979 90.0237C265.519 89.8607 265.958 90.563 266.521 91.8673C268.162 95.6549 269.94 99.3547 268.776 103.556C268.738 103.682 268.838 103.832 268.863 103.97C269.088 105.387 270.805 107.08 267.962 107.983C267.786 108.033 267.761 108.648 267.786 108.987C267.886 110.579 268.563 111.733 270.304 112.561C271.381 113.088 272.057 114.329 272.821 115.295C273.159 115.709 273.272 116.273 273.597 117.026C274.512 115.496 275.213 113.828 277.217 114.844C279.108 115.809 277.905 117.164 277.316 118.393C277.041 118.957 276.565 119.798 276.816 120.174C278.143 122.143 276.728 123.535 275.851 125.115C275.426 125.88 274.874 126.971 275.175 127.611C275.914 129.166 275.839 131.436 278.644 131.662C279.007 131.687 279.584 132.377 279.596 132.766C279.621 134.095 279.433 135.424 279.32 136.766C279.07 136.779 278.807 136.804 278.557 136.816C279.108 137.343 279.659 137.883 280.235 138.434C280.736 137.694 281.086 136.967 281.637 136.403C282.752 135.261 285.069 135.387 285.783 136.553C286.998 138.535 285.482 143.1 283.303 144.417C282.502 144.906 281.8 145.671 281.374 146.448C279.671 149.584 278.106 152.769 276.452 155.93C274.799 159.103 272.983 162.201 271.468 165.424C270.003 168.522 270.191 171.808 270.504 175.344C271.493 175.093 272.257 174.717 272.971 174.767C274.637 174.893 276.277 175.231 277.93 175.482C277.655 176.523 277.379 177.577 277.104 178.618C277.216 178.806 277.329 178.981 277.43 179.17C278.444 178.643 279.696 178.304 280.41 177.552C283.591 174.253 284.643 170.114 285.67 166.001C285.846 165.311 286.146 164.659 286.459 163.794C289.227 166.728 289.703 170.93 288.037 173.877C287.436 174.93 286.998 176.16 286.935 177.326C286.71 181.678 286.923 186.055 286.459 190.394C286.159 193.241 285.27 196.101 284.105 198.772C283.516 200.139 281.8 201.055 282.739 202.923C282.965 203.362 282.326 204.228 281.951 204.817C279.997 207.877 277.881 210.837 278.419 214.662C278.657 216.343 278.556 218.111 278.281 219.792C278.08 220.996 277.342 222.125 276.753 223.517C273.485 220.645 273.197 219.967 273.622 217.033C273.923 214.976 270.855 212.104 268.538 212.442C266.659 212.718 265.745 212.116 265.169 210.549C264.455 208.592 263.39 208.279 261.374 209.244C259.22 210.273 257.041 211.264 254.974 212.43C250.867 214.75 246.871 217.233 242.764 219.554C239.257 221.523 235.713 223.454 232.056 225.185C231.104 225.636 229.326 225.749 228.587 225.247C227.836 224.733 227.397 223.14 227.673 222.237C228.687 219.002 229.213 215.477 232.632 213.245C233.484 212.693 234.034 211.765 234.761 210.988C231.467 209.332 229.138 209.997 227.56 212.781C227.309 213.22 226.721 213.496 226.245 213.809C225.506 214.286 224.654 214.637 224.003 215.189C221.724 217.095 219.707 219.315 217.202 220.946C214.76 222.526 214.397 224.357 214.873 226.702C215.061 227.643 215.074 228.621 215.186 229.65C215.662 229.85 216.852 230.038 216.94 230.427C217.353 232.358 219.131 232.446 220.634 233.023C221.786 233.462 222.964 234.001 223.865 234.754C225.393 236.021 225.03 237.388 222.976 237.639C221.173 237.852 219.219 237.526 217.403 237.174C214.347 236.585 213.984 236.773 214.109 239.545C211.517 240.962 208.949 240.122 206.582 239.156C203.514 237.902 201.147 239.294 198.204 240.159C198.931 240.987 199.544 241.476 199.845 242.078C200.333 243.082 201.11 244.248 200.884 245.176C200.559 246.631 200.91 247.22 202.438 247.333C203.828 247.446 204.391 247.96 204.128 249.29C204.002 249.942 204.416 250.669 204.491 251.372C204.629 252.676 204.704 253.968 204.817 255.598C206.057 256.213 207.334 257.178 205.731 259.047C205.581 259.223 206.032 260.088 206.433 260.301C207.309 260.778 208.361 260.966 209.288 261.392C211.78 262.521 212.381 264.089 211.517 266.534C211.342 267.024 211.604 267.638 211.667 268.19C211.742 268.855 211.818 269.519 211.868 269.845C210.703 270.385 209.964 270.886 209.137 271.062C208.361 271.225 207.159 271.375 206.708 270.987C204.416 269.03 201.335 269.457 198.693 268.641C198.066 268.453 197.265 268.729 196.388 268.804C196.877 269.883 197.215 270.635 197.653 271.626C196.463 271.802 195.524 271.877 194.635 272.103C194.009 272.253 193.195 272.467 192.894 272.906C191.73 274.599 190.064 274.799 188.16 274.398C186.945 274.135 185.768 273.746 184.34 273.357C184.453 274.072 184.528 274.536 184.603 275H172.167C170.251 274.423 168.297 273.909 166.419 273.244C159.881 270.899 155.035 266.81 151.403 261.468C150.476 260.113 149.399 258.821 148.209 257.266C147.27 259.737 146.694 260.013 144.415 259.26C143.3 258.897 142.248 258.332 141.133 257.981C140.107 257.655 139.004 257.254 137.952 257.291C133.381 257.442 131.002 255.924 129.925 251.949C129.587 250.707 129.236 249.453 128.772 248.236C128.221 246.756 127.082 246.756 126.105 247.797C123.776 250.255 120.707 250.832 117.476 250.331C114.683 249.892 111.978 248.964 109.273 248.161C107.845 247.735 106.543 247.245 105.779 248.913C103.174 247.434 102.961 247.571 102.184 251.071C101.358 251.02 100.431 250.732 99.6922 250.958C97.3628 251.673 96.7491 250.368 96.2357 248.838C95.9601 248.023 95.8476 247.133 95.4468 246.367C95.1713 245.841 94.5324 245.113 94.044 245.101C91.126 245.051 90.5501 243.307 89.8487 241.238C89.0597 238.93 88.4585 236.246 84.7389 235.92C83.9625 235.845 83.0483 234.603 82.6726 233.738C81.9463 232.108 81.608 230.339 81.0194 228.646C80.531 227.267 79.9673 225.912 79.3411 224.57C78.5897 222.94 77.7757 221.334 76.9367 219.754C76.8365 219.566 76.3481 219.428 76.0726 219.466C73.0919 219.817 72.3654 217.748 71.5138 215.954C70.9252 214.725 70.6121 213.396 70.2614 212.355C67.2056 212.091 64.2878 211.903 61.3822 211.577C59.917 211.414 58.7771 211.514 58.702 213.095C58.5768 215.816 56.3602 218.563 58.8775 221.247C59.0403 221.422 59.0401 221.824 58.9649 222.087C58.2887 224.344 57.65 226.614 56.836 228.834C56.6481 229.323 55.6713 230.051 55.3081 229.951C52.891 229.248 51.8641 230.427 51.2379 232.534C49.9104 231.581 48.8082 230.841 47.7688 230.038C46.7794 229.273 45.8525 228.433 44.5375 227.304C44.788 227.254 44.3371 227.379 43.8863 227.442C38.7641 228.132 34.7816 226.288 35.8336 221.435C36.1216 220.105 36.5348 218.801 36.9857 217.509C37.6995 215.465 38.7265 213.483 39.1773 211.401C39.503 209.859 39.2151 208.178 39.0523 206.573C38.7893 204.027 38.2132 201.506 38.113 198.96C38.0253 196.753 34.1305 198.295 34.0553 196.101C34.0052 194.834 25.6268 198.07 22.1703 203.274C21.8822 203.713 20.3168 202.61 19.7157 202.397C16.7851 201.356 15.658 199.061 15.37 196.452C14.9066 192.338 14.5057 188.212 14.2803 184.086C13.8043 175.269 16.5095 167.18 21.5316 159.655C22.2705 158.551 23.022 157.435 23.5104 156.231C25.8649 150.55 28.144 144.906 21.4563 140.065C19.6529 138.76 19.3149 136.816 20.5923 134.797C20.9304 134.258 21.1056 133.242 20.7675 132.828C19.6278 131.436 21.0306 129.166 18.7388 128.225C18.6386 128.175 18.626 127.812 18.6761 127.611C19.4651 124.576 20.1288 121.503 21.1307 118.531C21.9072 116.211 23.0593 113.991 24.1739 111.783C25.539 109.1 26.9166 106.278 30.7238 105.851C32.6775 105.638 33.1661 104.773 32.8029 103.28C32.2143 100.872 33.7547 99.7184 35.8837 98.8906C36.7604 98.552 37.7123 98.3263 38.5138 97.8748C39.115 97.5487 39.5282 96.9467 40.0292 96.4701C39.4406 96.0688 38.8643 95.6424 38.2631 95.2661C37.9626 95.078 37.5869 94.9777 37.0233 94.7519C37.5994 93.6357 38.1255 92.6449 38.689 91.5914C37.9126 91.0897 37.2112 90.6257 36.4849 90.1993C34.7566 89.1709 34.7441 88.4058 36.247 86.8883C37.7498 85.3582 39.0772 83.2136 39.24 81.2446C39.4404 78.9495 39.6909 77.3065 42.4336 76.993C42.3209 74.5474 42.5213 74.2087 45.2891 74.1837C47.1176 74.1711 47.9693 73.5566 48.5329 72.0767C50.2486 67.5617 52.0896 63.0843 53.868 58.5944C53.893 58.5317 53.7425 58.4063 53.3292 57.8294C51.7137 60.5509 50.3111 63.0467 48.7582 65.4798C48.3199 66.157 47.2803 67.1603 46.7919 67.06C44.6879 66.5834 44.2495 68.0132 43.3102 69.004C41.9076 70.4964 41.6069 73.2681 38.2381 72.616C38.0001 72.5658 37.4992 73.1302 37.3113 73.4939C36.8104 74.4596 36.247 75.4378 35.9966 76.4662C35.6709 77.758 35.4705 78.7112 33.4667 78.498C32.828 78.4227 31.9138 79.6643 31.2751 80.4043C30.0227 81.8466 28.9455 83.4143 27.6681 84.844C26.4783 86.1609 25.2008 87.4401 23.8357 88.6065C23.1219 89.2085 22.1202 89.8983 21.231 89.9234C18.7763 89.9735 17.3862 90.8389 16.8728 93.0212C16.0963 96.282 15.0568 99.4801 14.3304 102.741C13.867 104.823 13.7544 106.955 13.4789 109.062C13.1282 111.671 12.7273 114.279 12.4142 116.888C12.2264 118.405 12.2639 119.935 12.0134 121.44C11.8255 122.594 11.738 124.062 10.9365 124.789C8.65718 126.846 8.34411 129.266 8.45683 131.888C8.61963 135.663 6.66582 138.923 5.21306 142.285C4.89997 143.025 3.78537 143.476 3.03394 144.066C2.44532 143.363 1.49338 142.724 1.33057 141.946C0.153341 136.39 -0.698177 130.797 0.804674 125.153C1.84415 121.277 2.84594 117.39 3.82279 113.502C4.06074 112.548 4.13605 111.558 4.31139 110.379C1.71897 110.529 1.45585 109.024 2.30746 107.77C3.73517 105.663 2.55811 103.819 2.16987 101.888C1.80668 100.107 2.47025 99.2042 4.47405 98.8656C5.27557 98.7276 6.26494 98.2385 6.65317 97.6365C7.52983 96.2945 8.09361 94.777 8.74485 93.3222C9.73422 91.0897 9.29586 90.4 6.82868 89.4719C6.24006 89.2461 5.56386 88.2303 5.66405 87.6784C6.02724 85.5965 6.69071 83.5522 7.24175 81.4829C7.89299 78.9996 8.66964 76.6293 11.8131 75.6761C16.4093 74.284 19.2898 70.8225 23.0594 68.402C22.1828 67.8251 21.0556 67.3359 21.1307 67.0851C21.3311 66.3201 21.9323 65.6177 22.4708 64.9656C22.6837 64.7022 23.1472 64.6019 23.5104 64.4639C26.0026 63.5107 27.8435 62.1061 28.1191 59.4723C28.1692 59.0459 28.5573 58.5944 28.933 58.2809C29.9224 57.4531 30.9743 56.663 32.0389 55.9231C34.5311 54.1923 36.7979 51.9725 39.6158 50.8939C44.6378 48.9875 50.0105 47.8086 55.2203 46.2786C56.097 46.0277 57.55 45.6766 57.6377 45.1874C58.0635 43.1181 59.7164 42.5035 61.5198 41.8263C63.0352 41.2619 62.9224 40.2711 61.7702 39.5563C61.0814 39.1298 60.0422 39.1048 59.1404 39.042C58.1385 38.9668 56.886 39.4183 56.1346 39.0295C53.6924 37.7753 51.6011 38.3272 49.3969 39.4308C48.3074 39.9827 47.105 40.4091 45.8902 40.6725C45.4769 40.7603 44.5753 40.3087 44.4501 39.945C44.3249 39.5813 44.7254 38.8163 45.1512 38.5905C46.0153 38.1014 47.0423 37.8757 47.9941 37.4869C49.2966 36.9601 50.6618 36.5212 51.8515 35.8314C54.1309 34.4894 56.2976 32.9719 58.5393 31.5672C60.5306 30.3256 62.5593 29.1467 64.6633 27.8925C63.1354 26.074 61.7705 25.6727 59.8042 26.4503C58.2262 27.0773 56.4729 27.416 54.7571 27.7044C51.7139 28.1936 48.9962 29.0965 46.6543 31.0656C45.6524 31.9059 43.9364 32.6584 42.6841 32.5079C40.1668 32.1943 38.3886 32.8716 36.6604 34.3389C35.7461 35.1165 34.5561 35.6307 33.5667 36.3456C29.7219 39.1424 26.4908 42.3029 24.7875 46.6548C23.6103 49.6648 21.7945 52.4741 20.204 55.3461C19.941 55.8102 19.3648 56.1739 18.8513 56.4874C17.649 57.2148 16.4343 57.9297 15.1694 58.5693C14.3553 58.9707 13.4288 59.2215 12.5521 59.535C12.2641 58.6446 11.8506 57.7667 11.7254 56.8637C11.6627 56.3495 11.9883 55.7475 12.2889 55.2458C13.4911 53.2266 14.7563 51.2325 16.2591 48.7869C14.4306 50.3044 12.8526 50.6681 11.1618 49.414C11.262 49.0879 11.2745 48.8621 11.3997 48.6991C11.8005 48.1723 12.2639 47.6832 12.6646 47.1439C12.9026 46.8178 13.1155 46.4667 13.2532 46.103C13.4661 45.5135 13.3784 44.6481 13.8167 44.3597C20.7549 39.7068 27.7309 35.0914 34.7442 30.5263C36.7856 29.1969 38.9647 28.0431 41.6573 26.4753C38.7518 25.7605 39.1023 24.3056 40.242 23.2647C41.2564 22.3492 42.7717 21.5967 44.1994 21.3584C47.5933 20.8065 50.499 19.9412 51.839 16.6929C52.0895 16.0783 53.0037 15.5014 53.7552 15.2631C57.2368 14.1093 59.6539 14.8116 61.3572 17.0942C64.3003 15.4262 67.0678 13.4321 70.1987 12.203C75.4336 10.1462 80.8315 8.36526 86.3169 6.92297C89.4604 6.09523 92.9669 5.63118 96.1855 5.94472C98.7028 6.19556 100.632 5.79422 102.723 4.82852C105.053 3.74994 107.445 2.7717 109.849 1.81853C110.751 1.46737 111.753 1.32941 112.705 1.09112C112.805 1.24162 112.892 1.39212 112.993 1.54262C112.266 2.14462 111.527 2.73407 111.114 3.08524C113.431 2.7717 115.973 2.53341 118.478 2.08191C121.058 1.61787 123.588 0.953162 126.08 0.388789C125.692 0.363706 125.216 0.338624 124.74 0.31354" fill="url(#paint0_linear_57_108)"/>
<defs>
<linearGradient id="paint0_linear_57_108" x1="144.5" y1="0" x2="144.5" y2="275" gradientUnits="userSpaceOnUse">
<stop stop-color="white"/>
<stop offset="1" stop-color="#FF5076"/>
</linearGradient>
</defs>
</svg>
