<svg width="25" height="38" viewBox="0 0 25 38" fill="none" xmlns="http://www.w3.org/2000/svg">
<g clip-path="url(#clip0_384_883)">
<mask id="mask0_384_883" style="mask-type:luminance" maskUnits="userSpaceOnUse" x="0" y="0" width="24" height="27">
<path d="M11.9577 15.9225C9.02354 15.9225 6.6541 13.6758 6.66637 10.8918C6.66637 8.11999 9.06038 5.87325 12.0068 5.88546C14.941 5.88546 17.2982 8.15662 17.2859 10.9406C17.2859 13.7002 14.9042 15.9225 11.9823 15.9225M9.91976 0.146526C4.18643 1.0501 0 5.71452 0 11.7709C0.0491077 14.1764 1.08037 16.7894 3.27794 18.9263C5.88065 21.4539 8.53247 23.9204 11.1597 26.3991C11.5894 26.8021 12.0928 26.7899 12.547 26.3747C15.1252 23.9448 17.7279 21.5393 20.2569 19.0606C23.0806 16.3132 24.161 12.992 23.4858 9.20672C22.5282 3.82189 17.4946 0 11.8595 0C11.2211 0 10.5704 0.048842 9.91976 0.146526Z" fill="white"/>
</mask>
<g mask="url(#mask0_384_883)">
<path d="M24.161 0H0V26.8021H24.161V0Z" fill="#FF335F"/>
</g>
<path d="M11.8472 37.3397C15.5549 37.3397 18.5504 36.0942 18.5504 34.5679C18.5504 33.0416 15.5426 31.7961 11.8472 31.7961C8.15187 31.7961 5.13174 33.0416 5.13174 34.5679C5.13174 36.0942 8.13959 37.3397 11.8472 37.3397Z" fill="#FF335F"/>
</g>
<defs>
<clipPath id="clip0_384_883">
<rect width="24.161" height="37.3397" fill="white"/>
</clipPath>
</defs>
</svg>
