<svg width="307" height="302" viewBox="0 0 307 302" fill="none" xmlns="http://www.w3.org/2000/svg">
<path d="M158.068 11.716C162.911 11.2917 164.72 14.8612 162.386 18.7678C161.812 19.7413 158.941 20.5401 157.269 26.9179C147.646 32.8589 163.06 37.5143 157.906 46.3633C156.358 49.0218 153.337 49.9703 151.353 51.8549C147.534 55.4869 143.627 61.2282 139.521 64.0863C130.822 70.1271 118.366 67.5935 120.175 79.9247C121.224 87.0514 129.361 88.287 132.969 93.0922C136.051 97.2109 134.591 102.59 142.404 100.144C144.326 98.9957 146.236 97.8474 148.158 96.6992C152.913 92.905 148.158 90.0468 155.347 83.6815C154.972 79.076 155.36 72.5235 159.341 69.4157C161.313 68.4172 163.285 67.4312 165.257 66.4328C166.73 57.9831 171.685 55.5618 172.608 52.6288C174.081 47.9858 169.288 40.2726 172.608 34.1194C176.814 30.3002 181.021 26.4935 185.239 22.6743C187.935 21.8631 193.888 22.275 195.311 25.0333C197.258 28.79 188.497 32.9213 189.233 37.2646C189.757 40.285 203.237 49.0342 206.656 50.5944C211.249 49.3463 215.456 49.4836 220.086 49.0218C222.108 48.5974 224.13 48.1855 226.164 47.7612C229.072 47.4491 240.879 49.9079 240.393 39.7608C240.081 33.3955 231.306 24.6214 238.633 19.2171C243.226 15.8223 250.627 18.3684 255.257 20.7897C258.19 22.3249 260.487 24.7462 262.958 27.0053C264.78 28.6652 266.128 30.7995 266.865 33.1584C269.174 40.5222 277.149 33.5328 280.194 33.9697C283.015 34.3691 287.271 39.7608 280.831 41.4957C277.024 42.5191 271.969 39.0494 266.44 41.1837C261.698 43.0184 263.233 49.9329 254.933 50.5944C252.249 50.8065 248.692 49.8455 245.66 50.9064C243.638 52.5788 241.616 54.2513 239.581 55.9238C228.823 58.5697 231.344 63.949 227.912 67.6809C225.103 70.7387 218.563 70.5016 216.729 84.6176C211.811 92.3558 210.488 103.788 202.5 109.243C197.495 112.662 179.161 117.967 176.764 128.214C178.449 138.248 162.424 139.384 168.776 154.873C173.195 165.632 182.144 153.912 186.999 161.463C192.865 170.562 173.881 170.811 176.128 182.793C167.89 196.872 178.25 198.045 190.032 194.55C192.478 193.402 194.937 192.254 197.383 191.106C205.084 188.372 208.117 191.767 213.683 189.533C217.09 187.436 220.498 185.352 223.918 183.255C229.047 181.545 234.102 183.168 239.419 177.763C240.829 176.328 243.937 170.986 246.933 168.827C255.507 162.649 263.844 168.615 269.948 166.006C273.954 164.296 274.978 153.35 288.807 155.659C296.957 157.02 300.801 163.348 294.885 167.891C288.419 172.846 273.542 167.779 277.786 183.417C275.926 190.444 268.138 192.129 271.707 198.469C275.214 204.697 288.944 211.45 280.656 219.487C274.266 225.69 268.437 220.448 266.428 219.962C264.294 219.437 261.486 220.324 259.389 219.026C249.192 210.713 256.543 201.153 245.959 196.759C233.416 196.298 239.893 190.432 225.815 198.644C219.524 198.869 213.721 201.714 210.463 202.089C203.986 202.838 199.467 200.554 193.838 205.534C185.588 212.847 196.984 217.69 200.715 221.996C202.737 225.441 204.759 228.898 206.794 232.343C209.14 234.639 211.487 236.936 213.833 239.245C218.551 245.348 214.894 251.638 230.62 248.181C238.758 246.396 243.401 241.379 246.284 240.967C252.911 240.019 255.083 244.499 254.122 247.707C253.323 250.378 247.919 252.075 248.368 257.43C248.518 259.214 250.565 262.16 250.902 267.839C251.126 271.571 251.838 275.24 252.836 278.835C254.346 284.226 252.062 288.133 253.797 291.628C254.084 292.202 262.659 300.389 255.881 301.825C247.944 303.509 241.154 292.576 238.62 290.217C232.654 285.936 226.688 281.643 220.723 277.362C215.218 275.302 207.867 276.226 203.461 280.182C198.094 285 200.915 293.35 192.278 294.923C181.183 296.944 184.503 281.568 181.882 273.131C180.471 268.575 176.864 265.093 174.855 260.899C172.122 255.22 173.382 251.326 165.257 245.847C163.697 240.206 153.287 236.274 148.47 239.107C144.9 244.075 141.331 249.042 137.761 254.01C135.989 257.267 134.341 263.97 132.007 266.241C128.675 269.474 122.959 268.55 124.02 263.733C124.719 260.537 131.958 259.838 132.332 248.992C132.557 242.615 129.561 242.477 128.5 240.842C125.917 236.861 128.176 231.469 124.506 231.269C123.633 231.219 118.753 234.814 112.038 230.009C106.908 226.339 108.581 222.707 99.2448 225.303C88.1242 228.399 86.4144 236.224 83.419 241.142C81.397 244.175 79.375 247.208 77.3406 250.241C71.1999 264.756 82.9696 272.919 82.1334 280.033C81.8089 282.741 74.3079 295.497 72.2235 297.593C65.4464 304.433 53.1402 302.935 49.5207 291.952C44.391 276.363 58.9436 268.026 53.6766 253.373C50.132 243.526 34.9053 244.312 30.3372 254.634C27.816 260.325 26.2433 277.898 17.3943 281.131C8.53274 284.364 7.87143 277.349 5.72469 274.079C3.6154 270.859 1.24389 270.335 0.295335 264.981C-1.28975 256.082 3.82764 253.149 7.97134 246.783C11.6158 241.192 28.1904 216.542 20.914 211.499C17.931 209.44 16.6581 214.12 14.5239 215.256C7.33481 219.088 4.63886 207.156 5.73719 201.615C5.94937 200.554 11.9651 193.427 12.7763 184.054C14.8607 179.249 20.4024 174.943 19.8158 169.314C18.9047 160.752 2.26737 166.094 0.956865 159.903C-0.690628 152.152 15.1728 149.369 17.2571 146.099C19.4788 142.642 13.9372 138.585 15.984 132.932C19.2166 123.97 33.47 139.958 38.8493 140.62C43.4423 141.182 48.7341 134.392 50.5189 130.735C54.9497 121.649 49.8574 116.956 48.2847 112.862C43.4796 100.394 49.3209 100.019 46.6874 89.9719C44.054 79.9122 31.3605 79.7126 36.7773 65.8212C37.1892 60.2921 33.3949 60.9536 36.4528 54.2139C37.2016 52.5539 41.208 47.1122 42.6808 46.2135C54.6001 39.0369 62.4758 73.6468 72.7352 65.971C75.0816 64.2236 80.3861 49.1715 85.0416 57.6586C88.6735 64.2611 83.4315 79.8249 92.5551 77.2663C99.532 75.3068 97.3228 59.9551 95.5879 54.8379C94.7392 52.3417 88.9232 41.321 87.2757 39.4738C82.6827 34.3066 95.95 29.5389 98.4711 36.3411C100.867 38.5876 103.264 40.8342 105.66 43.0808C113.71 47.4367 118.902 33.5453 125.155 31.1614C137.237 29.7885 136.001 25.0083 143.378 20.1781C150.991 20.4402 150.205 12.4025 158.08 11.7035" fill="url(#paint0_linear_57_109)"/>
<path d="M298.991 73.6338C302.324 73.4341 306.031 78.3392 306.18 81.3221C306.392 85.3909 301.874 85.8527 303.622 91.0448C303.784 91.5066 307.903 94.5395 302.186 99.3572C295.771 104.761 290.966 99.9688 283.327 107.832C278.298 109.654 273.817 112.5 268.3 112.849C257.192 116.456 254.971 123.783 247.195 126.965C242.34 128.95 236.137 128.7 231.843 131.046C226.164 134.154 225.266 141.967 218.102 143.59C215.493 144.176 210.526 144.039 208.991 141.555C203.911 133.33 225.59 119.776 232.168 117.567C238.196 118.091 244.412 116.843 249.429 113.486C257.629 108.007 244 109.142 243.201 105.797C241.666 99.457 250.74 97.8096 255.195 97.173C256.905 98.5335 258.603 99.8939 260.313 101.254C268.051 103.775 279.933 85.9401 285.25 81.4969C289.069 80.4485 295.921 73.846 299.004 73.6588" fill="url(#paint1_linear_57_109)"/>
<path d="M295.883 0.158457C305.419 -1.52648 310.261 10.7424 301.899 12.5022C289.555 15.1107 287.434 1.6437 295.883 0.158457Z" fill="white"/>
<defs>
<linearGradient id="paint0_linear_57_109" x1="148.875" y1="11.6816" x2="148.875" y2="302" gradientUnits="userSpaceOnUse">
<stop stop-color="white"/>
<stop offset="1" stop-color="#FF5076"/>
</linearGradient>
<linearGradient id="paint1_linear_57_109" x1="257.207" y1="73.6279" x2="257.207" y2="143.879" gradientUnits="userSpaceOnUse">
<stop stop-color="white"/>
<stop offset="1" stop-color="#FF7996"/>
</linearGradient>
</defs>
</svg>
