<svg width="340" height="46" viewBox="0 0 340 46" fill="none" xmlns="http://www.w3.org/2000/svg">
<g clip-path="url(#clip0_57_294)">
<path d="M147.075 18.7175H142.45V15.4153H155.616V18.7175H150.991V30.7538H147.06V18.7175H147.075ZM116.643 22.9611L124.043 30.7538H119.032L112.819 24.1184V30.7538H108.888V15.3999H112.819V22.1432L118.385 15.3999H123.01L116.643 22.9611ZM78.7023 22.1432L83.9594 15.3999H87.3202V30.7538H83.389V21.3254L78.7177 27.3435L74.0156 21.3254V30.7538H70.0843V15.3999H73.4452L78.6714 22.1432H78.7023ZM41.2243 18.4244C38.8038 18.4244 37.1234 20.4304 37.1234 23.0845C37.1234 25.7387 38.8038 27.7447 41.2243 27.7447C42.9201 27.7447 44.1997 26.7263 44.9243 25.1214H48.8864C47.9151 28.8712 45.0784 31.1087 41.2243 31.1087C36.6301 31.1087 33.1613 27.6521 33.1613 23.0845C33.1613 18.5169 36.6301 15.0604 41.2243 15.0604C45.063 15.0604 47.9151 17.2979 48.8864 21.0476H44.9243C44.2151 19.4428 42.9355 18.4244 41.2243 18.4244ZM136.114 23.0845C136.114 25.7078 134.511 27.7447 132.075 27.7447C129.639 27.7447 127.943 25.7078 127.943 23.0845C127.943 20.4613 129.639 18.4244 132.075 18.4244C134.511 18.4244 136.114 20.4613 136.114 23.0845ZM135.883 15.4153V17.2053C135.883 17.2053 135.682 16.9893 135.528 16.8041C134.773 15.8937 133.308 15.0758 131.165 15.0758C127.203 15.0758 123.981 18.6713 123.981 23.1C123.981 27.5287 127.203 31.1241 131.165 31.1241C133.308 31.1241 134.773 30.3063 135.528 29.3958C135.682 29.2107 135.867 28.9946 135.867 28.9946V30.7692H139.799V15.4153H135.898H135.883ZM62.931 23.0845C62.931 25.7078 61.3277 27.7447 58.8918 27.7447C56.456 27.7447 54.7601 25.7078 54.7601 23.0845C54.7601 20.4613 56.456 18.4244 58.8918 18.4244C61.3277 18.4244 62.931 20.4613 62.931 23.0845ZM62.6997 15.4153V17.2053C62.6997 17.2053 62.4993 16.9893 62.3452 16.8041C61.5897 15.8937 60.1252 15.0758 57.9822 15.0758C54.0201 15.0758 50.798 18.6713 50.798 23.1C50.798 27.5287 54.0201 31.1241 57.9822 31.1241C60.1252 31.1241 61.5897 30.3063 62.3452 29.3958C62.4993 29.2107 62.6843 28.9946 62.6843 28.9946V30.7692H66.6156V15.4153H62.7152H62.6997ZM98.1273 27.7447C95.7532 27.7447 94.0265 25.6152 94.0265 23.0845C94.0265 20.5538 95.7532 18.4244 98.1273 18.4244C100.502 18.4244 102.197 20.5847 102.197 23.0845C102.197 25.5844 100.486 27.7447 98.1273 27.7447ZM98.1273 15.0604C93.6873 15.0604 90.0644 18.6558 90.0644 23.0845C90.0644 27.5133 93.6102 31.1087 98.1273 31.1087C102.644 31.1087 106.19 27.5904 106.19 23.0845C106.19 18.5787 102.567 15.0604 98.1273 15.0604ZM15.3088 28.2077C12.4875 28.2077 10.2059 25.9239 10.2059 23.1C10.2059 20.2761 12.4875 17.9769 15.3088 17.9769C18.13 17.9769 20.4117 20.2607 20.4117 23.1C20.4117 25.9393 18.13 28.2077 15.3088 28.2077ZM25.5146 22.8068C25.3605 15.8782 19.718 10.3076 12.765 10.3076C5.8121 10.3076 0 16.0171 0 23.0845H5.10293C5.10293 28.7323 9.66628 33.3153 15.3088 33.3153C20.9513 33.3153 25.3605 28.8866 25.5146 23.3777C25.5146 23.2851 25.5146 23.1926 25.5146 23.0845C25.5146 22.9765 25.5146 22.8994 25.5146 22.7913" fill="white"/>
<path d="M203.732 17.7145H203.238C201.373 17.7145 199.924 18.1157 198.906 18.5478C198.243 18.841 197.519 18.2546 197.627 17.5447L198.213 14.011C198.305 13.4401 197.858 12.9463 197.288 12.9463H190.689C190.227 12.9463 189.81 13.2858 189.764 13.7178L187.205 29.5192C187.113 30.0902 187.56 30.584 188.13 30.584H194.543C194.913 30.584 195.237 30.3834 195.391 30.0593V30.0285C195.623 29.5347 196.208 29.3649 196.702 29.6273C197.596 30.1211 199.138 30.692 201.496 30.692H202.051C207.863 30.692 209.575 27.6984 210.099 24.7665C210.191 24.2264 210.268 23.532 210.268 22.8993C210.268 20.276 208.819 17.6991 203.732 17.6991M198.875 26.7417H198.783C197.241 26.7417 196.578 25.7695 196.578 24.643C196.578 24.4116 196.609 24.1492 196.64 23.9023C196.84 22.8067 197.688 21.6648 199.307 21.6648H199.446C200.988 21.6648 201.512 22.529 201.512 23.6554C201.512 24.9208 200.926 26.7571 198.875 26.7571" fill="white"/>
<path d="M220.813 12.9463H215.063C214.4 12.9463 213.814 13.4401 213.722 14.1036L211.317 29.0563C211.178 29.8896 211.841 30.6149 212.658 30.6149H218.408C219.071 30.6149 219.657 30.1211 219.75 29.473L222.155 14.5203C222.293 13.7178 221.661 12.9617 220.813 12.9617" fill="white"/>
<path d="M242.829 26.4029C242.628 26.4029 242.536 26.2641 242.597 26.0017L243.245 22.0051C243.538 20.0145 242.921 17.5146 234.072 17.5146H232.7C225.3 17.5146 223.835 19.5515 223.373 21.249C223.265 21.6502 223.542 22.0205 223.959 22.0205H230.665C230.896 22.0205 231.096 21.8971 231.22 21.6965C231.389 21.357 231.836 20.9712 233.131 20.9712H233.193C234.642 20.9712 234.843 21.3724 234.843 21.7428C234.843 22.0822 234.611 22.252 234.118 22.3137L227.551 22.8384C225.254 23.039 223.928 23.5328 223.08 24.366C222.324 25.1067 222.062 26.2023 222.062 27.1591C222.062 29.0571 223.511 30.8162 227.643 30.8162H227.782C230.541 30.8162 232.284 30.091 233.27 29.4429C233.594 29.2423 233.964 29.3503 234.149 29.7052C234.442 30.2453 234.966 30.6002 235.829 30.6002H242.335C242.628 30.6002 242.89 30.3687 242.952 30.0755L243.414 27.0819C243.507 26.7424 243.214 26.3875 242.829 26.3875M234.812 25.3691L234.781 25.5388C234.55 26.9122 233.363 27.7763 231.59 27.7763C230.279 27.7763 229.848 27.1745 229.848 26.5727C229.848 25.832 230.341 25.3691 231.328 25.1067L233.794 24.4741C234.349 24.3043 234.904 24.7827 234.812 25.3691Z" fill="white"/>
<path d="M263.965 17.8232H247.037C246.775 17.8232 246.544 18.0238 246.513 18.2862L245.989 21.6193C245.927 21.9279 246.189 22.2211 246.513 22.2211H252.464C252.819 22.2211 252.896 22.684 252.618 22.8229L245.48 26.2795C245.341 26.3566 245.218 26.5109 245.187 26.6807L244.663 29.9829C244.601 30.2915 244.864 30.5847 245.187 30.5847H262.115C262.377 30.5847 262.608 30.3841 262.639 30.1218L263.225 26.5264C263.286 26.2177 263.024 25.9245 262.701 25.9245H256.919C256.626 25.9245 256.519 25.5233 256.796 25.3845L263.672 22.1285C263.841 22.0359 263.934 21.897 263.965 21.7273L264.489 18.4251C264.551 18.101 264.289 17.8232 263.965 17.8232Z" fill="white"/>
<path d="M285.625 26.4022C285.425 26.4022 285.332 26.2633 285.394 26.001L286.026 22.0043C286.319 20.0137 285.702 17.5293 276.853 17.5293H275.496C268.096 17.5293 266.632 19.5662 266.169 21.2636C266.061 21.6648 266.339 22.0352 266.755 22.0352H273.461C273.693 22.0352 273.893 21.9272 274.016 21.7265C274.186 21.3871 274.633 21.0013 275.928 21.0013H275.99C277.439 21.0013 277.639 21.4025 277.639 21.7728C277.639 22.1123 277.408 22.2975 276.915 22.3438L270.347 22.853C268.05 23.0536 266.709 23.5474 265.876 24.3807C265.121 25.1214 264.859 26.217 264.859 27.1737C264.859 29.0717 266.308 30.8309 270.44 30.8309H270.578C273.338 30.8309 275.08 30.1056 276.067 29.4421C276.391 29.2415 276.761 29.3649 276.93 29.7044C277.223 30.2445 277.747 30.5994 278.611 30.5994H285.116C285.409 30.5994 285.671 30.3679 285.733 30.0748L286.196 27.0811C286.288 26.7416 285.995 26.3867 285.61 26.3867M277.531 25.3837L277.501 25.5534C277.3 26.8805 276.128 27.7138 274.417 27.7138C273.168 27.7138 272.737 27.1429 272.737 26.541C272.737 25.8312 273.199 25.3683 274.155 25.1368L276.514 24.535C277.1 24.3961 277.624 24.8591 277.531 25.3991" fill="white"/>
<path d="M326.665 23.0077C324.923 21.0016 325.508 16.9433 326.757 9.38204L326.433 9.32031C323.967 24.2113 323.412 25.0446 309.182 25.1063C308.858 25.1063 308.519 24.7668 308.565 24.4736L308.766 23.27C309.059 21.48 308.966 17.5759 303.802 17.5759H303.509C301.474 17.5759 299.994 18.3475 298.976 19.1345C298.545 19.474 297.897 19.1036 298.02 18.5635C298.082 18.1932 297.789 17.8691 297.404 17.8691H290.112C289.819 17.8691 289.557 18.0697 289.495 18.3783L287.66 29.9053C287.599 30.2757 287.892 30.5997 288.277 30.5997H295.569C295.862 30.5997 296.124 30.3991 296.186 30.0751L297.065 24.5816C297.327 22.8842 297.943 22.3441 298.945 22.3441C300.102 22.3441 300.425 23.2391 300.256 24.1033L300.132 24.7359C300.071 25.1063 300.364 25.4303 300.749 25.4303H307.872C315.487 25.4303 319.511 25.5229 321.222 27.529C322.965 29.535 322.379 33.5934 321.13 41.1546L321.454 41.2163C323.982 25.8933 324.506 25.4303 339.985 25.4303V25.1217C332.43 25.1217 328.36 24.9983 326.649 23.0231" fill="white"/>
<path d="M171.896 0H170.94V46H171.896V0Z" fill="white"/>
</g>
<defs>
<clipPath id="clip0_57_294">
<rect width="340" height="46" fill="white"/>
</clipPath>
</defs>
</svg>
